<svg fill="none" viewBox="0 0 347 294">
  <ellipse cx="171" cy="147" fill="#000" rx="146" ry="147"/>
  <ellipse cx="171" cy="147" fill="#fff" rx="139" ry="140"/>
  <circle cx="151.5" cy="53.5" r="15.5" fill="#FD876D"/>
  <path stroke="#FD876D" stroke-width="3" d="M151 36V16M169 53h20M164 66l15.76 12.313M179.76 29 164 41.313M114 53h20M138.76 66 123 78.313M123 29l15.76 12.313M151 91V71"/>
  <path fill="#FEAA7B" d="M204.64 95.239a10 10 0 0 1 11.721 0l87.323 63.158c7.858 5.684 3.837 18.103-5.861 18.103H123.177c-9.698 0-13.719-12.419-5.861-18.103l87.324-63.158Z"/>
  <path fill="#F1946C" d="M135.264 112.016a10.002 10.002 0 0 1 11.472 0l90.393 63.292c8.008 5.608 4.04 18.192-5.736 18.192H50.607c-9.776 0-13.744-12.584-5.736-18.192l90.393-63.292Z"/>
  <path fill="#EE8051" d="M219.001 141.62a10 10 0 0 1 10.998 0l62.32 41.028c8.289 5.456 4.425 18.352-5.499 18.352H162.18c-9.924 0-13.788-12.896-5.499-18.352l62.32-41.028Z"/>
  <path fill="#ED733F" d="M160.85 153.921a10 10 0 0 1 13.3 0l81.551 72.61c6.864 6.112 2.541 17.469-6.65 17.469H85.949c-9.191 0-13.514-11.357-6.65-17.469l81.551-72.61Z"/>
</svg>
